<?xml version="1.0" encoding="utf-8"?>
<!-- Generator: Adobe Illustrator 25.0.0, SVG Export Plug-In . SVG Version: 6.00 Build 0)  -->
<svg version="1.1" id="레이어_3" xmlns="http://www.w3.org/2000/svg" xmlns:xlink="http://www.w3.org/1999/xlink" x="0px"
	 y="0px" viewBox="0 0 1874 4589.2" style="enable-background:new 0 0 1874 4589.2;" xml:space="preserve">
<style type="text/css">
	.st0{fill:none;stroke:#E21E2F;stroke-linecap:round;stroke-linejoin:round;stroke-miterlimit:10;}
</style>
<path class="st0" d="M937,442.4c0,0,41.7,311-252.5,311c0,0-108.5,48-108.5,139.8S638.6,1056,949.5,1056s559.3,16.7,569.7,79.3
	c10.4,62.6,114.8,246.3-369.4,252.5s-732.5-27.1-747.1,89.7s108.5,296.3,738.8,283.8c0,0,235.3,16.7,272.9,143.5
	s-165.9,194.1-347.5,228.5s-972-1.6-784.2,313c0,0,159.6,87.6,311.5,89.2s873.4,1.6,884.3,173.7s29.1,260.8,14.1,284.9
	c-20.5,26.2-117.4,234.8-313,234.8S998,3438.8,998,3438.8"/>
</svg>
